<svg width="28" height="28" viewBox="0 0 28 28" fill="none" xmlns="http://www.w3.org/2000/svg">
<path d="M0 9.95555C0 6.47078 0 4.7284 0.678182 3.39739C1.27473 2.22661 2.22661 1.27473 3.39739 0.678182C4.7284 0 6.47078 0 9.95556 0H18.0444C21.5292 0 23.2716 0 24.6026 0.678182C25.7734 1.27473 26.7253 2.22661 27.3218 3.39739C28 4.7284 28 6.47078 28 9.95556V18.0444C28 21.5292 28 23.2716 27.3218 24.6026C26.7253 25.7734 25.7734 26.7253 24.6026 27.3218C23.2716 28 21.5292 28 18.0444 28H9.95555C6.47078 28 4.7284 28 3.39739 27.3218C2.22661 26.7253 1.27473 25.7734 0.678182 24.6026C0 23.2716 0 21.5292 0 18.0444V9.95555Z" fill="white"/>
</svg>
