<svg width="16" height="16" viewBox="0 0 16 16" fill="none" xmlns="http://www.w3.org/2000/svg">
<path d="M10.06 2.21999C10.1867 2.21999 10.3134 2.26665 10.4134 2.36665C10.6067 2.55999 10.6067 2.87999 10.4134 3.07332L6.06668 7.41999C5.74668 7.73999 5.74668 8.25999 6.06668 8.57999L10.4133 12.9267C10.6067 13.12 10.6067 13.44 10.4133 13.6333C10.22 13.8267 9.90002 13.8267 9.70668 13.6333L5.36002 9.28665C5.02002 8.94665 4.82668 8.48665 4.82668 7.99999C4.82668 7.51332 5.01335 7.05332 5.36002 6.71332L9.70668 2.36665C9.80668 2.27332 9.93335 2.21999 10.06 2.21999Z" fill="white"/>
</svg>
