<svg width="11" height="12" viewBox="0 0 11 12" fill="none" xmlns="http://www.w3.org/2000/svg">
<path d="M10.1716 4.09304C10.1143 4.12646 8.75031 4.83186 8.75031 6.39589C8.81459 8.17957 10.4716 8.80509 10.5 8.80509C10.4716 8.83852 10.2498 9.65721 9.59301 10.5154C9.07174 11.2547 8.49316 12 7.61459 12C6.77887 12 6.47887 11.5073 5.51458 11.5073C4.47902 11.5073 4.18601 12 3.39315 12C2.51458 12 1.89315 11.2147 1.34345 10.4824C0.629322 9.52395 0.0223334 8.01982 0.000904755 6.5756C-0.0135363 5.8103 0.143917 5.05802 0.543608 4.41904C1.10774 3.52699 2.11489 2.92143 3.21473 2.90146C4.05744 2.87498 4.80744 3.4406 5.32173 3.4406C5.81458 3.4406 6.73601 2.90146 7.77856 2.90146C8.22857 2.9019 9.42857 3.02822 10.1716 4.09304ZM5.25045 2.74866C5.10045 2.04978 5.51458 1.35089 5.9003 0.905079C6.39316 0.365938 7.17158 0 7.84285 0C7.88571 0.698886 7.61412 1.38432 7.12872 1.88352C6.69316 2.42266 5.94316 2.82853 5.25045 2.74866Z" fill="white"/>
</svg>
