<svg width="14" height="14" viewBox="0 0 14 14" fill="none" xmlns="http://www.w3.org/2000/svg">
<path d="M12.5359 5.94413L11.9526 5.6233L6.70259 2.70663H6.63843C6.60266 2.69151 6.56555 2.67979 6.52759 2.67163H6.41676H6.31176C6.2719 2.6798 6.23286 2.69151 6.19509 2.70663H6.13093L0.880925 5.6233C0.791151 5.67418 0.71648 5.74795 0.664528 5.83711C0.612577 5.92627 0.585205 6.02761 0.585205 6.1308C0.585205 6.23399 0.612577 6.33533 0.664528 6.42448C0.71648 6.51364 0.791151 6.58742 0.880925 6.6383L2.33343 7.4433V10.2083C2.33343 10.6724 2.5178 11.1175 2.84599 11.4457C3.17418 11.7739 3.6193 11.9583 4.08343 11.9583H8.75009C9.21422 11.9583 9.65934 11.7739 9.98753 11.4457C10.3157 11.1175 10.5001 10.6724 10.5001 10.2083V7.4433L11.6668 6.78996V8.4583C11.6668 8.61301 11.7282 8.76138 11.8376 8.87078C11.947 8.98017 12.0954 9.04163 12.2501 9.04163C12.4048 9.04163 12.5532 8.98017 12.6626 8.87078C12.772 8.76138 12.8334 8.61301 12.8334 8.4583V6.45163C12.8332 6.34827 12.8056 6.24681 12.7533 6.15763C12.7011 6.06846 12.626 5.99478 12.5359 5.94413ZM9.33343 10.2083C9.33343 10.363 9.27197 10.5114 9.16257 10.6208C9.05317 10.7302 8.9048 10.7916 8.75009 10.7916H4.08343C3.92872 10.7916 3.78034 10.7302 3.67095 10.6208C3.56155 10.5114 3.50009 10.363 3.50009 10.2083V8.0908L6.13093 9.54913L6.21843 9.58413H6.27093C6.31934 9.59023 6.36834 9.59023 6.41676 9.58413C6.46518 9.59023 6.51417 9.59023 6.56259 9.58413H6.61509C6.64606 9.5776 6.67566 9.56576 6.70259 9.54913L9.33343 8.0908V10.2083ZM6.41676 8.37663L2.36843 6.12496L6.41676 3.8733L10.4651 6.12496L6.41676 8.37663Z" fill="#54ADFF"/>
</svg>
