<svg width="96" height="81" viewBox="0 0 96 81" fill="none" xmlns="http://www.w3.org/2000/svg">
<path d="M81.0001 46.1379V64.4319C81.0001 68.9959 79.3797 72.8982 76.139 76.139C72.8982 79.3798 68.9958 81.0001 64.4319 81.0001H16.5682C12.0043 81.0001 8.10193 79.3798 4.86116 76.139C1.62039 72.8982 0 68.9959 0 64.4319V16.5682C0 12.0043 1.62039 8.10193 4.86116 4.86116C8.10193 1.62039 12.0043 0 16.5682 0H64.4319C66.8481 0 69.0917 0.479404 71.1628 1.43821C71.738 1.70668 72.0832 2.14773 72.1983 2.76137C72.3133 3.41336 72.1407 3.96947 71.6805 4.4297L68.8616 7.24859C68.4781 7.63212 68.037 7.82388 67.5385 7.82388C67.4234 7.82388 67.2508 7.78552 67.0207 7.70882C66.1386 7.47871 65.2757 7.36365 64.4319 7.36365H16.5682C14.037 7.36365 11.87 8.26493 10.0675 10.0675C8.26493 11.87 7.36365 14.037 7.36365 16.5682V64.4319C7.36365 66.9632 8.26493 69.1301 10.0675 70.9326C11.87 72.7352 14.037 73.6365 16.5682 73.6365H64.4319C66.9632 73.6365 69.1301 72.7352 70.9326 70.9326C72.7352 69.1301 73.6365 66.9632 73.6365 64.4319V49.8197C73.6365 49.3211 73.8091 48.8992 74.1542 48.5541L77.8361 44.8722C78.2196 44.4887 78.6606 44.297 79.1592 44.297C79.3893 44.297 79.6195 44.3545 79.8496 44.4695C80.6166 44.7764 81.0001 45.3325 81.0001 46.1379ZM94.2892 18.0064L47.461 64.8346C46.5406 65.7551 45.4475 66.2153 44.1819 66.2153C42.9163 66.2153 41.8232 65.7551 40.9028 64.8346L16.1655 40.0974C15.2451 39.1769 14.7848 38.0839 14.7848 36.8182C14.7848 35.5526 15.2451 34.4596 16.1655 33.5391L22.4936 27.211C23.4141 26.2905 24.5071 25.8303 25.7728 25.8303C27.0384 25.8303 28.1314 26.2905 29.0519 27.211L44.1819 42.341L81.4028 5.12004C82.3233 4.19958 83.4163 3.73935 84.682 3.73935C85.9476 3.73935 87.0406 4.19958 87.9611 5.12004L94.2892 11.4482C95.2097 12.3686 95.6699 13.4617 95.6699 14.7273C95.6699 15.9929 95.2097 17.086 94.2892 18.0064Z" fill="#8685E7"/>
</svg>
