<svg width="14" height="14" viewBox="0 0 14 14" fill="none" xmlns="http://www.w3.org/2000/svg">
<path d="M11.6667 4.66655L8.16666 1.59821C7.84581 1.31124 7.43045 1.15259 6.99999 1.15259C6.56953 1.15259 6.15417 1.31124 5.83333 1.59821L2.33333 4.66655C2.14804 4.83226 2.00019 5.03554 1.8996 5.26286C1.79902 5.49018 1.74802 5.73631 1.74999 5.98488V11.0832C1.74999 11.5473 1.93437 11.9925 2.26256 12.3207C2.59075 12.6488 3.03587 12.8332 3.49999 12.8332H10.5C10.9641 12.8332 11.4092 12.6488 11.7374 12.3207C12.0656 11.9925 12.25 11.5473 12.25 11.0832V5.97905C12.2511 5.73146 12.1997 5.48645 12.0992 5.2602C11.9986 5.03394 11.8512 4.83161 11.6667 4.66655ZM8.16666 11.6665H5.83333V8.74988C5.83333 8.59517 5.89479 8.4468 6.00418 8.3374C6.11358 8.22801 6.26195 8.16655 6.41666 8.16655H7.58333C7.73804 8.16655 7.88641 8.22801 7.99581 8.3374C8.1052 8.4468 8.16666 8.59517 8.16666 8.74988V11.6665ZM11.0833 11.0832C11.0833 11.2379 11.0219 11.3863 10.9125 11.4957C10.8031 11.6051 10.6547 11.6665 10.5 11.6665H9.33333V8.74988C9.33333 8.28575 9.14895 7.84063 8.82076 7.51244C8.49257 7.18426 8.04746 6.99988 7.58333 6.99988H6.41666C5.95253 6.99988 5.50741 7.18426 5.17922 7.51244C4.85103 7.84063 4.66666 8.28575 4.66666 8.74988V11.6665H3.49999C3.34528 11.6665 3.19691 11.6051 3.08752 11.4957C2.97812 11.3863 2.91666 11.2379 2.91666 11.0832V5.97905C2.91677 5.89622 2.93451 5.81437 2.9687 5.73894C3.0029 5.6635 3.05277 5.59621 3.11499 5.54155L6.61499 2.47905C6.72145 2.38553 6.8583 2.33395 6.99999 2.33395C7.14169 2.33395 7.27854 2.38553 7.38499 2.47905L10.885 5.54155C10.9472 5.59621 10.9971 5.6635 11.0313 5.73894C11.0655 5.81437 11.0832 5.89622 11.0833 5.97905V11.0832Z" fill="#A30000"/>
</svg>
