<svg width="209" height="278" viewBox="0 0 209 278" fill="none" xmlns="http://www.w3.org/2000/svg">
<path d="M102.853 178.757C135.735 178.757 162.391 152.048 162.391 119.101C162.391 86.1541 135.735 59.4454 102.853 59.4454C69.9711 59.4454 43.315 86.1541 43.315 119.101C43.315 152.048 69.9711 178.757 102.853 178.757Z" fill="#FFC1C1"/>
<path d="M183.803 195.608H25.6106V192.026H183.803C183.888 192.026 183.972 192.043 184.05 192.075C184.129 192.108 184.2 192.155 184.26 192.215C184.32 192.276 184.368 192.347 184.4 192.426C184.433 192.504 184.449 192.588 184.449 192.673V194.96C184.449 195.132 184.381 195.297 184.26 195.418C184.139 195.54 183.974 195.608 183.803 195.608Z" fill="#425AC2"/>
<path d="M26.9039 192.686H25.5979V277.59H26.9039V192.686Z" fill="#425AC2"/>
<path d="M183.804 192.686H183.79C183.433 192.686 183.144 192.976 183.144 193.334V276.942C183.144 277.3 183.433 277.59 183.79 277.59H183.804C184.161 277.59 184.45 277.3 184.45 276.942V193.334C184.45 192.976 184.161 192.686 183.804 192.686Z" fill="#425AC2"/>
<path d="M92.0358 53.7076C91.6155 54.1274 91.0462 54.3631 90.4528 54.3631C89.8593 54.3631 89.29 54.1274 88.8696 53.7076C88.4507 53.2864 88.2155 52.716 88.2155 52.1214C88.2155 51.5267 88.4507 50.9564 88.8696 50.5352L92.6427 46.7678C92.848 46.5572 93.0931 46.3898 93.3639 46.2755C93.6346 46.1613 93.9254 46.1024 94.2192 46.1024C94.513 46.1024 94.8039 46.1613 95.0746 46.2755C95.3453 46.3898 95.5905 46.5572 95.7957 46.7678C96.006 46.9735 96.173 47.2191 96.2871 47.4904C96.4011 47.7617 96.4599 48.0531 96.4599 48.3475C96.4599 48.6418 96.4011 48.9332 96.2871 49.2045C96.173 49.4758 96.006 49.7215 95.7957 49.9271L92.0358 53.7076Z" fill="#8EA8DD"/>
<path d="M118.725 53.7077C119.145 54.1274 119.715 54.3631 120.308 54.3631C120.902 54.3631 121.471 54.1274 121.891 53.7077C122.31 53.2865 122.545 52.7161 122.545 52.1214C122.545 51.5268 122.31 50.9564 121.891 50.5352L118.118 46.7679C117.912 46.5569 117.665 46.3893 117.394 46.2748C117.122 46.1603 116.83 46.1014 116.535 46.1014C116.24 46.1014 115.948 46.1603 115.676 46.2748C115.405 46.3893 115.158 46.5569 114.952 46.7679C114.534 47.1869 114.299 47.7551 114.299 48.3476C114.299 48.94 114.534 49.5082 114.952 49.9272L118.725 53.7077Z" fill="#8EA8DD"/>
<path d="M94.6081 11.1962C93.9589 10.2312 93.61 9.09491 93.6055 7.93117C93.6055 3.56902 98.711 0 104.977 0C111.244 0 116.35 3.54259 116.35 7.93117C116.344 9.0037 116.047 10.0545 115.492 10.9715L113.817 9.98006C114.198 9.36426 114.403 8.65564 114.41 7.93117C114.41 4.69261 110.096 1.96958 104.977 1.96958C99.8588 1.96958 95.5448 4.69261 95.5448 7.93117C95.5534 8.72032 95.7969 9.48894 96.244 10.1387L94.6081 11.1962Z" fill="#A4B8EA"/>
<path d="M116.249 9.65101L112.389 15.6813L120.128 20.6561L123.989 14.6257L116.249 9.65101Z" fill="#FFC1C1"/>
<path d="M112.959 11.0378C113.133 10.6699 113.336 10.3163 113.566 9.98031C114.647 8.51316 116.259 7.52927 118.056 7.23992C119.853 6.95057 121.692 7.37884 123.177 8.43277C124.662 9.4867 125.676 11.0822 126 12.8767C126.325 14.6712 125.934 16.5216 124.911 18.0304C124.677 18.3626 124.412 18.6724 124.12 18.9558L112.959 11.0378Z" fill="#FE958E"/>
<path d="M93.7849 9.99951L86.0453 14.9742L89.9061 21.0046L97.6458 16.0299L93.7849 9.99951Z" fill="#FFC1C1"/>
<path d="M120.14 48.2472C128.394 39.9774 128.394 26.5694 120.14 18.2995C111.887 10.0297 98.5052 10.0297 90.2517 18.2995C81.9981 26.5694 81.9982 39.9774 90.2517 48.2472C98.5053 56.517 111.887 56.517 120.14 48.2472Z" fill="#FE958E"/>
<path d="M109.263 50.3939C118.706 48.147 124.542 38.6558 122.3 29.1948C120.057 19.7337 110.585 13.8856 101.142 16.1326C91.6998 18.3795 85.8631 27.8707 88.1057 37.3317C90.3482 46.7927 99.8207 52.6409 109.263 50.3939Z" fill="#FEE2E3"/>
<path d="M105.861 17.9379C105.864 18.0691 105.828 18.1982 105.757 18.3086C105.686 18.419 105.584 18.5058 105.464 18.5579C105.343 18.6099 105.21 18.6249 105.081 18.6009C104.953 18.5769 104.834 18.515 104.74 18.4232C104.647 18.3313 104.583 18.2135 104.556 18.085C104.529 17.9564 104.542 17.8229 104.591 17.7013C104.641 17.5798 104.725 17.4758 104.834 17.4025C104.943 17.3293 105.071 17.2902 105.202 17.2902C105.288 17.2884 105.373 17.3039 105.453 17.3356C105.533 17.3674 105.606 17.4148 105.668 17.4751C105.729 17.5355 105.778 17.6075 105.811 17.6869C105.844 17.7664 105.861 17.8517 105.861 17.9379Z" fill="#425AC2"/>
<path d="M98.1175 19.6692C98.1621 19.7435 98.1914 19.826 98.2036 19.9119C98.2158 19.9977 98.2107 20.0851 98.1885 20.169C98.1664 20.2528 98.1277 20.3313 98.0747 20.3999C98.0217 20.4684 97.9555 20.5256 97.88 20.568C97.7306 20.6507 97.555 20.672 97.3902 20.6277C97.2253 20.5833 97.0841 20.4767 96.9961 20.3301C96.9136 20.1804 96.8923 20.0045 96.9366 19.8393C96.9809 19.6742 97.0873 19.5326 97.2336 19.4445C97.3806 19.3573 97.5562 19.332 97.7218 19.3741C97.8874 19.4162 98.0297 19.5223 98.1175 19.6692Z" fill="#425AC2"/>
<path d="M92.2864 25.0361C92.3615 25.0772 92.4274 25.1331 92.4803 25.2005C92.5332 25.2679 92.5718 25.3453 92.594 25.428C92.6162 25.5108 92.6215 25.5972 92.6094 25.6821C92.5974 25.7669 92.5683 25.8484 92.5239 25.9217C92.4359 26.0682 92.2947 26.1749 92.1299 26.2193C91.965 26.2636 91.7894 26.2423 91.64 26.1597C91.5664 26.1171 91.5018 26.0605 91.4501 25.9929C91.3983 25.9254 91.3603 25.8483 91.3382 25.7661C91.3162 25.6839 91.3105 25.5981 91.3216 25.5136C91.3326 25.4292 91.3601 25.3478 91.4026 25.274C91.445 25.2002 91.5015 25.1355 91.5689 25.0837C91.6363 25.0318 91.7132 24.9937 91.7953 24.9716C91.8774 24.9495 91.963 24.9438 92.0473 24.9549C92.1316 24.966 92.2128 24.9935 92.2864 25.0361Z" fill="#425AC2"/>
<path d="M89.912 32.6102C90.0399 32.6102 90.1649 32.6482 90.2712 32.7194C90.3775 32.7906 90.4603 32.8917 90.5093 33.0101C90.5582 33.1285 90.571 33.2587 90.5461 33.3843C90.5211 33.51 90.4595 33.6254 90.3691 33.716C90.2787 33.8066 90.1635 33.8682 90.0381 33.8932C89.9127 33.9182 89.7828 33.9054 89.6646 33.8564C89.5465 33.8073 89.4456 33.7243 89.3746 33.6178C89.3035 33.5113 89.2656 33.3861 89.2656 33.258C89.2656 33.0862 89.3337 32.9214 89.4549 32.8C89.5762 32.6785 89.7406 32.6102 89.912 32.6102Z" fill="#425AC2"/>
<path d="M91.6405 40.3563C91.7899 40.2737 91.9655 40.2523 92.1303 40.2967C92.2952 40.341 92.4364 40.4477 92.5244 40.5942C92.5881 40.7052 92.6175 40.8327 92.6089 40.9604C92.6004 41.0882 92.5542 41.2105 92.4763 41.312C92.3984 41.4135 92.2922 41.4896 92.1712 41.5306C92.0501 41.5716 91.9197 41.5758 91.7962 41.5426C91.6728 41.5094 91.562 41.4402 91.4778 41.3439C91.3936 41.2476 91.3397 41.1285 91.3231 41.0016C91.3064 40.8746 91.3276 40.7456 91.3841 40.6307C91.4406 40.5159 91.5298 40.4204 91.6405 40.3563Z" fill="#425AC2"/>
<path d="M96.9961 46.1992C97.0841 46.0527 97.2253 45.946 97.3902 45.9017C97.555 45.8573 97.7306 45.8787 97.88 45.9613C98.0305 46.0472 98.1407 46.1894 98.1865 46.3567C98.2323 46.5241 98.2098 46.7028 98.1241 46.8535C98.0384 47.0043 97.8964 47.1147 97.7294 47.1606C97.5624 47.2065 97.384 47.184 97.2336 47.0981C97.0864 47.0074 96.9796 46.8635 96.9354 46.6962C96.8912 46.5289 96.9129 46.3509 96.9961 46.1992Z" fill="#425AC2"/>
<path d="M104.555 48.5786C104.553 48.4468 104.589 48.3172 104.661 48.2065C104.732 48.0958 104.835 48.0091 104.956 47.9574C105.077 47.9058 105.211 47.8916 105.34 47.9166C105.469 47.9417 105.588 48.0049 105.681 48.0981C105.774 48.1913 105.837 48.3103 105.862 48.4398C105.887 48.5692 105.873 48.7031 105.822 48.8244C105.77 48.9457 105.683 49.0488 105.573 49.1204C105.462 49.192 105.333 49.2289 105.202 49.2263C105.03 49.2263 104.866 49.1581 104.745 49.0366C104.623 48.9151 104.555 48.7504 104.555 48.5786Z" fill="#425AC2"/>
<path d="M112.299 46.8601C112.254 46.7859 112.225 46.7033 112.213 46.6175C112.201 46.5316 112.206 46.4442 112.228 46.3604C112.25 46.2765 112.289 46.198 112.342 46.1295C112.395 46.0609 112.461 46.0037 112.536 45.9613C112.686 45.8787 112.861 45.8573 113.026 45.9017C113.191 45.946 113.332 46.0527 113.42 46.1992C113.503 46.3509 113.525 46.5289 113.481 46.6962C113.437 46.8635 113.33 47.0074 113.183 47.0981C113.033 47.1807 112.858 47.2021 112.693 47.1577C112.528 47.1133 112.387 47.0067 112.299 46.8601Z" fill="#425AC2"/>
<path d="M118.131 41.4804C118.056 41.4392 117.99 41.3833 117.938 41.3159C117.885 41.2485 117.846 41.1711 117.824 41.0884C117.802 41.0056 117.796 40.9192 117.808 40.8343C117.82 40.7495 117.85 40.668 117.894 40.5947C117.936 40.5209 117.993 40.4562 118.06 40.4044C118.128 40.3525 118.205 40.3144 118.287 40.2923C118.369 40.2702 118.454 40.2645 118.539 40.2756C118.623 40.2867 118.704 40.3142 118.778 40.3568C118.851 40.3993 118.916 40.4559 118.968 40.5235C119.02 40.591 119.058 40.6681 119.08 40.7503C119.102 40.8326 119.107 40.9184 119.096 41.0028C119.085 41.0872 119.058 41.1687 119.015 41.2424C118.974 41.3176 118.918 41.3837 118.851 41.4366C118.784 41.4896 118.707 41.5284 118.624 41.5506C118.541 41.5728 118.455 41.5781 118.371 41.566C118.286 41.5539 118.204 41.5248 118.131 41.4804Z" fill="#425AC2"/>
<path d="M120.506 33.9057C120.863 33.9057 121.152 33.6157 121.152 33.2579C121.152 32.9002 120.863 32.6102 120.506 32.6102C120.149 32.6102 119.86 32.9002 119.86 33.2579C119.86 33.6157 120.149 33.9057 120.506 33.9057Z" fill="#425AC2"/>
<path d="M118.777 26.1597C118.628 26.2423 118.452 26.2636 118.288 26.2193C118.123 26.1749 117.981 26.0682 117.893 25.9217C117.808 25.7727 117.785 25.5957 117.829 25.4296C117.874 25.2635 117.982 25.122 118.131 25.0361C118.28 24.9502 118.456 24.927 118.622 24.9716C118.788 25.0162 118.929 25.125 119.015 25.274C119.057 25.3478 119.085 25.4292 119.096 25.5136C119.107 25.5981 119.102 25.6839 119.079 25.7662C119.057 25.8484 119.019 25.9256 118.968 25.9931C118.916 26.0606 118.851 26.1172 118.777 26.1597Z" fill="#425AC2"/>
<path d="M113.42 20.3174C113.332 20.464 113.191 20.5706 113.026 20.615C112.861 20.6593 112.686 20.638 112.536 20.5554C112.461 20.5129 112.395 20.4557 112.342 20.3872C112.289 20.3186 112.25 20.2401 112.228 20.1563C112.206 20.0724 112.201 19.985 112.213 19.8992C112.225 19.8133 112.254 19.7308 112.299 19.6565C112.387 19.5096 112.529 19.4035 112.695 19.3614C112.86 19.3192 113.036 19.3446 113.183 19.4318C113.329 19.5199 113.436 19.6615 113.48 19.8266C113.524 19.9918 113.503 20.1677 113.42 20.3174Z" fill="#425AC2"/>
<path d="M98.1487 28.2893L97.518 29.4803L104.662 33.2782L105.292 32.0872L98.1487 28.2893Z" fill="#425AC2"/>
<path d="M115.848 26.6075L105.196 32.492L105.68 33.3717L116.332 27.4873L115.848 26.6075Z" fill="#425AC2"/>
<path d="M108.289 33.2584C108.305 33.8716 108.138 34.4757 107.811 34.9937C107.483 35.5118 107.009 35.9205 106.449 36.1679C105.888 36.4153 105.267 36.4902 104.665 36.3831C104.062 36.2761 103.504 35.9918 103.063 35.5666C102.622 35.1413 102.317 34.5942 102.187 33.9948C102.057 33.3954 102.107 32.7708 102.333 32.2004C102.558 31.6299 102.947 31.1394 103.451 30.7912C103.955 30.4429 104.551 30.2527 105.163 30.2446C105.976 30.2304 106.761 30.5396 107.347 31.1045C107.933 31.6693 108.272 32.4439 108.289 33.2584Z" fill="#FE958E"/>
<path d="M97.1016 11.3283C96.9306 10.9559 96.7229 10.6017 96.4815 10.2708C95.4161 8.76503 93.7973 7.74504 91.9814 7.43517C90.1654 7.1253 88.3009 7.55093 86.7981 8.61844C85.2954 9.68596 84.2774 11.3079 83.9681 13.1275C83.6589 14.947 84.0836 16.8152 85.1491 18.3209C85.3835 18.6496 85.6438 18.959 85.9274 19.2462L97.1016 11.3283Z" fill="#FE958E"/>
<path d="M3.06543 90.7993C2.79448 90.9112 2.50408 90.9681 2.21104 90.9667C1.918 90.9654 1.62813 90.9058 1.35822 90.7915C1.0883 90.6772 0.843706 90.5103 0.638557 90.3007C0.433408 90.091 0.27179 89.8426 0.163059 89.57C-0.0587276 89.0213 -0.0541032 88.4068 0.175942 87.8615C0.405988 87.3163 0.842633 86.8848 1.38996 86.6619L6.324 84.6394C6.87378 84.4203 7.48748 84.4264 8.03284 84.6563C8.57821 84.8863 9.01156 85.3217 9.23955 85.8688C9.46183 86.4193 9.45756 87.0357 9.22766 87.5831C8.99776 88.1305 8.56093 88.5644 8.01265 88.7901L3.06543 90.7993Z" fill="#8EA8DD"/>
<path d="M27.6692 101.189C27.7793 101.462 27.9422 101.711 28.1486 101.921C28.355 102.13 28.6007 102.297 28.8717 102.411C29.1427 102.526 29.4335 102.585 29.7275 102.586C30.0215 102.587 30.3129 102.53 30.5847 102.418C31.133 102.193 31.5698 101.759 31.7997 101.211C32.0297 100.664 32.0339 100.048 31.8116 99.497L29.7932 94.5532C29.5707 94.0048 29.1401 93.5673 28.5959 93.3368C28.0517 93.1063 27.4384 93.1017 26.8908 93.3239C26.6182 93.4342 26.3701 93.5975 26.1607 93.8043C25.9513 94.0111 25.7848 94.2573 25.6708 94.5288C25.5567 94.8003 25.4974 95.0918 25.4962 95.3863C25.4951 95.6809 25.5521 95.9728 25.6639 96.2452L27.6692 101.189Z" fill="#8EA8DD"/>
<path d="M21.9294 52.6367C21.7009 51.4911 21.8204 50.3032 22.2724 49.2263C23.9611 45.2607 30.0297 43.9389 35.808 46.3711C41.5864 48.8033 44.9241 54.0643 43.2355 58.0828C42.8139 59.0726 42.1295 59.9276 41.2566 60.5546L40.0956 58.9816C40.6766 58.5607 41.1326 57.9896 41.4149 57.3293C42.7341 54.3551 39.7394 50.1516 35.0297 48.1688C30.3199 46.186 25.2803 47.0188 24.0402 49.993C23.7392 50.7203 23.6612 51.521 23.816 52.293L21.9294 52.6367Z" fill="#A4B8EA"/>
<path d="M42.4526 59.6756L36.5577 63.7305L41.762 71.3263L47.6569 67.2713L42.4526 59.6756Z" fill="#425AC2"/>
<path d="M38.8835 59.6288C39.1859 59.353 39.5127 59.1052 39.8598 58.8886C40.6785 58.3691 41.5965 58.0269 42.555 57.8839C43.5135 57.7409 44.4912 57.8002 45.4254 58.058C46.3597 58.3159 47.2298 58.7665 47.98 59.3811C48.7302 59.9957 49.3439 60.7607 49.7816 61.6269C50.2194 62.4931 50.4717 63.4414 50.5222 64.4111C50.5727 65.3807 50.4203 66.3502 50.0749 67.2574C49.7295 68.1645 49.1986 68.9893 48.5163 69.6788C47.834 70.3683 47.0155 70.9073 46.1131 71.2612L38.8835 59.6288Z" fill="#FFC1C1"/>
<path d="M21.6471 51.181L12.5871 52.7556L13.8091 59.8146L22.869 58.2401L21.6471 51.181Z" fill="#425AC2"/>
<path d="M42.6164 85.3119C40.989 89.16 38.2603 92.4388 34.7746 94.7343C31.289 97.0297 27.2027 98.239 23.0317 98.2094C18.8607 98.1799 14.792 96.9127 11.3391 94.5681C7.88622 92.2234 5.20406 88.9063 3.63119 85.0355C2.05832 81.1647 1.66526 76.9137 2.50164 72.8193C3.33802 68.7248 5.36635 64.9705 8.33055 62.0301C11.2948 59.0898 15.0619 57.0952 19.1565 56.2984C23.2511 55.5015 27.4895 55.9381 31.3367 57.5529C33.9001 58.6288 36.2263 60.2014 38.1816 62.1803C40.1369 64.1593 41.683 66.5057 42.731 69.0849C43.779 71.664 44.3084 74.4252 44.2887 77.2098C44.2691 79.9945 43.7007 82.7479 42.6164 85.3119Z" fill="#FFC1C1"/>
<path d="M29.7203 93.423C38.7161 89.774 43.0564 79.5089 39.4145 70.4954C35.7727 61.4818 25.5278 57.133 16.532 60.782C7.53617 64.4311 3.19591 74.6961 6.83777 83.7097C10.4796 92.7233 20.7245 97.0721 29.7203 93.423Z" fill="#FEE2E3"/>
<path d="M29.6741 63.2118C29.6412 63.2907 29.5931 63.3625 29.5325 63.4228C29.4719 63.4832 29.4001 63.531 29.3211 63.5635C29.242 63.596 29.1574 63.6126 29.072 63.6124C28.9865 63.6121 28.902 63.595 28.8232 63.562C28.7443 63.5291 28.6728 63.4809 28.6126 63.4202C28.5523 63.3595 28.5046 63.2875 28.4721 63.2083C28.4397 63.1291 28.4231 63.0443 28.4233 62.9588C28.4236 62.8732 28.4407 62.7884 28.4736 62.7095C28.5432 62.5511 28.672 62.4264 28.8323 62.3622C28.9926 62.2979 29.1717 62.2992 29.3311 62.3658C29.4882 62.4328 29.6124 62.5594 29.6767 62.7179C29.741 62.8764 29.74 63.0539 29.6741 63.2118Z" fill="#425AC2"/>
<path d="M21.8768 61.7972C21.8878 61.8823 21.8819 61.9689 21.8593 62.0517C21.8367 62.1345 21.7978 62.212 21.745 62.2797C21.6922 62.3473 21.6266 62.4038 21.5518 62.4458C21.477 62.4877 21.3947 62.5144 21.3095 62.5242C21.1399 62.5468 20.9682 62.501 20.8322 62.3969C20.6962 62.2928 20.6069 62.139 20.5839 61.969C20.5729 61.8839 20.5788 61.7974 20.6015 61.7145C20.6241 61.6317 20.6629 61.5542 20.7157 61.4866C20.7685 61.4189 20.8342 61.3624 20.9089 61.3204C20.9837 61.2785 21.0661 61.2518 21.1512 61.242C21.3209 61.2195 21.4925 61.2652 21.6285 61.3693C21.7646 61.4734 21.8538 61.6272 21.8768 61.7972Z" fill="#425AC2"/>
<path d="M14.4108 64.4813C14.4649 64.5481 14.5048 64.6253 14.5282 64.7081C14.5516 64.7909 14.5579 64.8776 14.5468 64.9629C14.5357 65.0482 14.5074 65.1303 14.4636 65.2043C14.4198 65.2784 14.3615 65.3427 14.2921 65.3934C14.2239 65.4451 14.1461 65.4827 14.0632 65.5041C13.9803 65.5255 13.8941 65.5301 13.8094 65.5178C13.7247 65.5055 13.6433 65.4765 13.5699 65.4325C13.4965 65.3884 13.4326 65.3302 13.3818 65.2612C13.3305 65.1939 13.2932 65.117 13.2721 65.035C13.2509 64.9531 13.2464 64.8676 13.2587 64.7839C13.271 64.7001 13.2999 64.6197 13.3437 64.5473C13.3875 64.4749 13.4453 64.412 13.5137 64.3623C13.5794 64.3085 13.6553 64.2687 13.7369 64.2454C13.8185 64.2221 13.9039 64.2159 13.988 64.227C14.0721 64.2382 14.153 64.2665 14.2258 64.3102C14.2985 64.354 14.3615 64.4122 14.4108 64.4813Z" fill="#425AC2"/>
<path d="M9.29178 70.5356C9.44982 70.6054 9.57427 70.7344 9.63841 70.895C9.70254 71.0557 9.70123 71.2351 9.63478 71.3949C9.56788 71.5523 9.44154 71.6767 9.28335 71.7411C9.12516 71.8055 8.94796 71.8046 8.79046 71.7385C8.71152 71.7068 8.63978 71.6594 8.57951 71.5993C8.51924 71.5392 8.47168 71.4675 8.43967 71.3885C8.40765 71.3096 8.39185 71.225 8.39319 71.1397C8.39452 71.0545 8.41298 70.9704 8.44746 70.8925C8.47934 70.8134 8.52651 70.7414 8.58626 70.6806C8.646 70.6198 8.71714 70.5714 8.79559 70.5383C8.87405 70.5051 8.95827 70.4878 9.04342 70.4874C9.12857 70.4869 9.21298 70.5033 9.29178 70.5356Z" fill="#425AC2"/>
<path d="M7.8811 78.3466C7.96609 78.3356 8.05244 78.3415 8.13511 78.3642C8.21777 78.3868 8.29512 78.4257 8.36264 78.4786C8.43016 78.5315 8.48651 78.5973 8.52841 78.6723C8.57031 78.7472 8.59692 78.8297 8.6067 78.915C8.62124 79.0419 8.59804 79.1702 8.54001 79.2839C8.48197 79.3976 8.39168 79.4915 8.28051 79.554C8.16933 79.6164 8.04223 79.6445 7.91516 79.6347C7.78809 79.625 7.66672 79.5778 7.56632 79.4992C7.46592 79.4205 7.39097 79.3139 7.35087 79.1927C7.31077 79.0715 7.30733 78.9411 7.34096 78.818C7.3746 78.6948 7.44383 78.5843 7.53993 78.5005C7.63604 78.4166 7.75472 78.3631 7.8811 78.3466Z" fill="#425AC2"/>
<path d="M10.558 85.8293C10.625 85.7715 10.703 85.728 10.7874 85.7017C10.8717 85.6753 10.9606 85.6665 11.0484 85.6758C11.1363 85.6852 11.2213 85.7125 11.2982 85.7561C11.3752 85.7997 11.4424 85.8586 11.4957 85.9292C11.549 85.9998 11.5873 86.0806 11.6082 86.1666C11.6291 86.2526 11.6322 86.342 11.6172 86.4293C11.6023 86.5166 11.5697 86.5999 11.5214 86.674C11.4731 86.7481 11.4102 86.8115 11.3364 86.8603C11.199 86.9628 11.0271 87.0078 10.8572 86.9856C10.6873 86.9634 10.5327 86.8758 10.4261 86.7414C10.3745 86.673 10.337 86.5951 10.3156 86.512C10.2943 86.429 10.2897 86.3426 10.3019 86.2577C10.3142 86.1729 10.3432 86.0913 10.3871 86.0178C10.4311 85.9443 10.4892 85.8802 10.558 85.8293Z" fill="#425AC2"/>
<path d="M16.6004 90.9575C16.6321 90.8784 16.6794 90.8065 16.7394 90.7461C16.7994 90.6858 16.871 90.6381 16.9498 90.606C17.0286 90.5739 17.113 90.5581 17.198 90.5594C17.2831 90.5608 17.367 90.5793 17.4447 90.6138C17.5628 90.6634 17.6636 90.7469 17.7343 90.8538C17.8049 90.9608 17.8423 91.0864 17.8416 91.2147C17.8409 91.343 17.8022 91.4682 17.7305 91.5744C17.6587 91.6806 17.5571 91.7631 17.4385 91.8114C17.3199 91.8597 17.1896 91.8715 17.0642 91.8456C16.9389 91.8196 16.824 91.7569 16.7342 91.6654C16.6445 91.574 16.5838 91.4579 16.56 91.3318C16.5362 91.2058 16.5503 91.0755 16.6004 90.9575Z" fill="#425AC2"/>
<path d="M24.3978 92.3722C24.3832 92.2453 24.4064 92.117 24.4645 92.0033C24.5225 91.8896 24.6128 91.7956 24.724 91.7332C24.8351 91.6708 24.9622 91.6427 25.0893 91.6525C25.2164 91.6622 25.3377 91.7093 25.4381 91.788C25.5385 91.8666 25.6135 91.9733 25.6536 92.0945C25.6937 92.2157 25.6971 92.3461 25.6635 92.4692C25.6299 92.5924 25.5606 92.7028 25.4645 92.7867C25.3684 92.8706 25.2497 92.9241 25.1234 92.9406C25.0384 92.9516 24.952 92.9457 24.8694 92.923C24.7867 92.9003 24.7093 92.8614 24.6418 92.8085C24.5743 92.7556 24.518 92.6898 24.4761 92.6149C24.4342 92.54 24.4075 92.4575 24.3978 92.3722Z" fill="#425AC2"/>
<path d="M31.8519 89.7287C31.7762 89.6258 31.7326 89.5029 31.7265 89.3752C31.7204 89.2476 31.7521 89.1211 31.8176 89.0115C31.8832 88.9019 31.9796 88.8141 32.0948 88.7593C32.2099 88.7044 32.3387 88.6849 32.4649 88.7033C32.5911 88.7216 32.7091 88.7769 32.804 88.8622C32.8989 88.9476 32.9665 89.0591 32.9983 89.1829C33.03 89.3066 33.0246 89.437 32.9826 89.5576C32.9406 89.6783 32.8639 89.7838 32.7622 89.8609C32.6231 89.9619 32.4503 90.0046 32.2803 89.9799C32.1103 89.9553 31.9566 89.8651 31.8519 89.7287Z" fill="#425AC2"/>
<path d="M36.9829 83.6349C36.8257 83.5676 36.7007 83.4418 36.6343 83.284C36.5678 83.1262 36.5651 82.9487 36.6267 82.7889C36.6965 82.6304 36.8245 82.5049 36.9842 82.4385C37.1438 82.372 37.3229 82.3697 37.4842 82.432C37.6423 82.5017 37.7667 82.6307 37.8308 82.7914C37.895 82.952 37.8937 83.1315 37.8272 83.2912C37.7956 83.3703 37.7483 83.4422 37.6883 83.5025C37.6282 83.5629 37.5567 83.6106 37.4779 83.6427C37.3991 83.6748 37.3147 83.6906 37.2296 83.6892C37.1446 83.6879 37.0607 83.6694 36.9829 83.6349Z" fill="#425AC2"/>
<path d="M38.3948 75.8231C38.3099 75.8341 38.2235 75.8281 38.1408 75.8055C38.0582 75.7828 37.9808 75.7439 37.9133 75.691C37.8458 75.6381 37.7894 75.5723 37.7475 75.4974C37.7056 75.4225 37.679 75.3399 37.6692 75.2546C37.6547 75.1278 37.6779 74.9994 37.736 74.8858C37.794 74.7721 37.8843 74.6781 37.9954 74.6157C38.1066 74.5533 38.2337 74.5252 38.3608 74.5349C38.4879 74.5447 38.6092 74.5918 38.7096 74.6705C38.81 74.7491 38.885 74.8558 38.9251 74.977C38.9652 75.0982 38.9686 75.2285 38.935 75.3517C38.9013 75.4748 38.8321 75.5853 38.736 75.6692C38.6399 75.7531 38.5212 75.8066 38.3948 75.8231Z" fill="#425AC2"/>
<path d="M35.7164 68.3539C35.5782 68.4573 35.4046 68.5015 35.2339 68.4767C35.0632 68.4519 34.9093 68.3602 34.8061 68.2217C34.7029 68.0832 34.6588 67.9093 34.6836 67.7383C34.7083 67.5672 34.7998 67.413 34.938 67.3096C35.0762 67.2062 35.2498 67.162 35.4205 67.1868C35.5912 67.2116 35.7451 67.3033 35.8483 67.4418C35.9515 67.5803 35.9956 67.7542 35.9709 67.9252C35.9461 68.0963 35.8546 68.2504 35.7164 68.3539Z" fill="#425AC2"/>
<path d="M18.5408 69.8285L17.4982 70.6809L22.6106 76.9594L23.6532 76.107L18.5408 69.8285Z" fill="#425AC2"/>
<path d="M35.4937 75.1273L23.3974 76.4076L23.5027 77.4066L35.599 76.1263L35.4937 75.1273Z" fill="#425AC2"/>
<path d="M26.0074 78.2809C25.7833 78.855 25.3931 79.3489 24.8869 79.6992C24.3807 80.0496 23.7815 80.2404 23.1663 80.2471C22.5511 80.2539 21.9479 80.0763 21.4342 79.7372C20.9204 79.3981 20.5195 78.9129 20.2828 78.3438C20.0462 77.7748 19.9847 77.1479 20.1061 76.5436C20.2276 75.9393 20.5264 75.3851 20.9644 74.9522C21.4024 74.5193 21.9595 74.2273 22.5642 74.1138C23.1689 74.0004 23.7937 74.0705 24.3583 74.3153C25.0923 74.6335 25.6744 75.2248 25.982 75.9645C26.2896 76.7042 26.2987 77.5346 26.0074 78.2809Z" fill="#FE958E"/>
<path d="M24.1592 53.7211C24.1454 53.3159 24.0924 52.9131 24.0008 52.5182C23.8051 51.6259 23.4358 50.7811 22.9142 50.0318C22.3925 49.2825 21.7287 48.6436 20.9606 48.1513C20.1925 47.6591 19.3352 47.3233 18.4376 47.1631C17.5399 47.0029 16.6196 47.0214 15.7291 47.2175C14.8386 47.4137 13.9954 47.7837 13.2476 48.3063C12.4998 48.829 11.8621 49.4941 11.3708 50.2637C10.8796 51.0334 10.5444 51.8924 10.3845 52.7918C10.2246 53.6912 10.2431 54.6133 10.4389 55.5056C10.5219 55.9092 10.6456 56.3034 10.8082 56.682L24.1592 53.7211Z" fill="#FFC1C1"/>
<path d="M205.73 90.7993C206.002 90.9114 206.293 90.9685 206.587 90.9673C206.881 90.9661 207.172 90.9067 207.443 90.7924C207.714 90.6782 207.96 90.5114 208.166 90.3016C208.373 90.0918 208.536 89.8431 208.646 89.57C208.867 89.0213 208.863 88.4068 208.633 87.8616C208.403 87.3163 207.966 86.8848 207.419 86.6619L202.485 84.6394C201.935 84.4167 201.32 84.421 200.774 84.6514C200.227 84.8817 199.794 85.3194 199.569 85.8688C199.457 86.1412 199.4 86.4331 199.402 86.7277C199.403 87.0223 199.462 87.3137 199.576 87.5852C199.69 87.8567 199.857 88.103 200.066 88.3097C200.275 88.5165 200.523 88.6798 200.796 88.7901L205.73 90.7993Z" fill="#8EA8DD"/>
<path d="M181.139 101.19C180.914 101.739 180.481 102.177 179.934 102.407C179.388 102.637 178.773 102.642 178.223 102.419C177.951 102.309 177.703 102.145 177.493 101.939C177.284 101.732 177.117 101.486 177.003 101.214C176.889 100.943 176.83 100.651 176.829 100.357C176.828 100.062 176.885 99.7701 176.996 99.4976L179.002 94.5539C179.227 94.0045 179.66 93.5668 180.206 93.3365C180.753 93.1061 181.368 93.1018 181.917 93.3245C182.19 93.4348 182.438 93.5981 182.647 93.8049C182.857 94.0117 183.023 94.2579 183.137 94.5294C183.251 94.8009 183.311 95.0924 183.312 95.387C183.313 95.6815 183.256 95.9734 183.144 96.2458L181.139 101.19Z" fill="#8EA8DD"/>
<path d="M186.877 52.6367C187.099 51.4908 186.98 50.3047 186.534 49.2263C184.845 45.2607 178.777 43.9389 172.985 46.3711C167.194 48.8033 163.882 54.0643 165.571 58.0828C165.993 59.0726 166.677 59.9276 167.55 60.5546L168.698 58.9816C168.117 58.5607 167.661 57.9896 167.378 57.3293C166.125 54.3551 169.054 50.1516 173.764 48.1688C178.473 46.186 183.5 47.0188 184.753 49.993C185.054 50.7203 185.132 51.521 184.977 52.293L186.877 52.6367Z" fill="#A4B8EA"/>
<path d="M166.336 59.6484L161.131 67.2441L167.026 71.299L172.23 63.7033L166.336 59.6484Z" fill="#FE958E"/>
<path d="M169.924 59.6288C169.619 59.3561 169.293 59.1085 168.948 58.8886C168.129 58.3691 167.211 58.0269 166.253 57.8839C165.294 57.7409 164.317 57.8002 163.382 58.058C162.448 58.3159 161.578 58.7665 160.828 59.3811C160.078 59.9957 159.464 60.7607 159.026 61.6269C158.588 62.4931 158.336 63.4414 158.286 64.4111C158.235 65.3807 158.388 66.3502 158.733 67.2574C159.078 68.1645 159.609 68.9893 160.292 69.6788C160.974 70.3683 161.792 70.9073 162.695 71.2612L169.924 59.6288Z" fill="#425AC2"/>
<path d="M188.351 48.5972L187.136 55.69L196.239 57.2563L197.455 50.1635L188.351 48.5972Z" fill="#FE958E"/>
<path d="M193.569 96.7453C204.394 92.3699 209.629 80.0305 205.262 69.1845C200.895 58.3385 188.58 53.0931 177.755 57.4686C166.931 61.844 161.696 74.1834 166.062 85.0294C170.429 95.8754 182.744 101.121 193.569 96.7453Z" fill="#425AC2"/>
<path d="M169.477 83.9244C170.827 87.133 173.097 89.8684 175.999 91.7846C178.901 93.7008 182.305 94.7118 185.78 94.6898C189.255 94.6677 192.646 93.6137 195.523 91.6608C198.401 89.708 200.636 86.9441 201.946 83.7187C203.255 80.4932 203.581 76.951 202.882 73.54C202.183 70.129 200.489 67.0023 198.017 64.5554C195.544 62.1085 192.403 60.4512 188.99 59.7931C185.577 59.1349 182.046 59.5055 178.844 60.858C176.717 61.7561 174.788 63.0652 173.166 64.7106C171.544 66.3559 170.262 68.3052 169.392 70.4472C168.522 72.5892 168.082 74.8819 168.097 77.1943C168.111 79.5068 168.58 81.7937 169.477 83.9244Z" fill="#FEE2E3"/>
<path d="M179.133 63.2122C179.2 63.3697 179.326 63.4949 179.484 63.5615C179.641 63.6281 179.818 63.6308 179.978 63.5691C180.056 63.5361 180.128 63.4879 180.188 63.4272C180.249 63.3665 180.296 63.2945 180.329 63.2153C180.361 63.1361 180.378 63.0513 180.377 62.9657C180.377 62.8801 180.36 62.7955 180.327 62.7165C180.294 62.6375 180.246 62.5658 180.186 62.5054C180.125 62.4451 180.053 62.3973 179.974 62.3647C179.895 62.3322 179.811 62.3156 179.725 62.3159C179.64 62.3161 179.555 62.3332 179.476 62.3662C179.319 62.4332 179.195 62.5598 179.131 62.7183C179.066 62.8768 179.067 63.0544 179.133 63.2122Z" fill="#425AC2"/>
<path d="M186.956 61.7976C186.945 61.8828 186.951 61.9693 186.974 62.0521C186.997 62.135 187.035 62.2125 187.088 62.2801C187.141 62.3478 187.207 62.4042 187.281 62.4462C187.356 62.4882 187.439 62.5149 187.524 62.5247C187.61 62.5397 187.698 62.5371 187.783 62.517C187.868 62.497 187.948 62.4599 188.018 62.408C188.088 62.3561 188.147 62.2905 188.192 62.2152C188.236 62.1398 188.264 62.0562 188.276 61.9695C188.287 61.8843 188.281 61.7978 188.258 61.715C188.236 61.6321 188.197 61.5547 188.144 61.487C188.091 61.4194 188.025 61.3629 187.951 61.3209C187.876 61.2789 187.794 61.2523 187.708 61.2425C187.622 61.2255 187.533 61.2266 187.448 61.2459C187.362 61.2651 187.281 61.302 187.21 61.3542C187.14 61.4064 187.081 61.4728 187.037 61.5491C186.993 61.6255 186.966 61.7101 186.956 61.7976Z" fill="#425AC2"/>
<path d="M194.384 64.4805C194.281 64.6189 194.237 64.7928 194.262 64.9639C194.286 65.1349 194.378 65.2891 194.516 65.3925C194.654 65.496 194.828 65.5401 194.999 65.5153C195.169 65.4905 195.323 65.3988 195.426 65.2604C195.53 65.1219 195.574 64.948 195.549 64.777C195.524 64.6059 195.433 64.4517 195.294 64.3483C195.226 64.2971 195.148 64.2599 195.065 64.2388C194.983 64.2177 194.896 64.2132 194.812 64.2255C194.641 64.2503 194.487 64.342 194.384 64.4805Z" fill="#425AC2"/>
<path d="M199.515 70.5356C199.356 70.6023 199.23 70.7295 199.164 70.8894C199.099 71.0493 199.099 71.2287 199.166 71.3882C199.232 71.5477 199.359 71.6743 199.519 71.74C199.678 71.8057 199.857 71.8052 200.017 71.7385C200.095 71.7068 200.167 71.6594 200.228 71.5993C200.288 71.5392 200.335 71.4675 200.367 71.3885C200.399 71.3096 200.415 71.225 200.414 71.1397C200.412 71.0545 200.394 70.9704 200.36 70.8925C200.328 70.8134 200.28 70.7414 200.221 70.6806C200.161 70.6198 200.09 70.5714 200.011 70.5383C199.933 70.5051 199.849 70.4878 199.764 70.4874C199.678 70.4869 199.594 70.5033 199.515 70.5356Z" fill="#425AC2"/>
<path d="M200.927 78.3466C200.842 78.3356 200.756 78.3415 200.673 78.3642C200.59 78.3868 200.513 78.4257 200.446 78.4786C200.378 78.5315 200.322 78.5973 200.28 78.6723C200.238 78.7472 200.211 78.8297 200.201 78.915C200.183 79.0864 200.232 79.2583 200.338 79.3941C200.443 79.53 200.598 79.6189 200.769 79.642C200.938 79.6606 201.108 79.6113 201.242 79.5049C201.375 79.3984 201.461 79.2434 201.481 79.0736C201.504 78.9036 201.458 78.7317 201.354 78.5954C201.25 78.4591 201.097 78.3696 200.927 78.3466Z" fill="#425AC2"/>
<path d="M198.249 85.8293C198.182 85.7715 198.104 85.728 198.02 85.7017C197.935 85.6753 197.846 85.6665 197.759 85.6758C197.671 85.6852 197.586 85.7125 197.509 85.7561C197.432 85.7997 197.365 85.8586 197.311 85.9292C197.258 85.9998 197.22 86.0806 197.199 86.1666C197.178 86.2526 197.175 86.342 197.19 86.4293C197.205 86.5166 197.237 86.5999 197.286 86.674C197.334 86.7481 197.397 86.8115 197.471 86.8603C197.608 86.9628 197.78 87.0078 197.95 86.9856C198.12 86.9634 198.274 86.8758 198.381 86.7414C198.433 86.673 198.47 86.5951 198.491 86.512C198.513 86.429 198.517 86.3426 198.505 86.2577C198.493 86.1729 198.464 86.0913 198.42 86.0178C198.376 85.9443 198.318 85.8802 198.249 85.8293Z" fill="#425AC2"/>
<path d="M192.234 90.9578C192.165 90.7995 192.036 90.6748 191.875 90.6105C191.715 90.5463 191.536 90.5476 191.377 90.6142C191.22 90.6812 191.095 90.8078 191.031 90.9663C190.967 91.1248 190.968 91.3023 191.034 91.4601C191.103 91.6185 191.232 91.7432 191.392 91.8074C191.553 91.8717 191.732 91.8704 191.891 91.8038C192.048 91.7368 192.172 91.6102 192.237 91.4517C192.301 91.2932 192.3 91.1156 192.234 90.9578Z" fill="#425AC2"/>
<path d="M184.411 92.3722C184.426 92.2453 184.403 92.117 184.344 92.0033C184.286 91.8896 184.196 91.7956 184.085 91.7332C183.974 91.6708 183.847 91.6427 183.72 91.6525C183.593 91.6622 183.471 91.7093 183.371 91.788C183.27 91.8666 183.195 91.9733 183.155 92.0945C183.115 92.2157 183.112 92.3461 183.145 92.4692C183.179 92.5924 183.248 92.7028 183.344 92.7867C183.441 92.8706 183.559 92.9241 183.686 92.9406C183.857 92.9593 184.028 92.9104 184.164 92.8042C184.299 92.6981 184.388 92.543 184.411 92.3722Z" fill="#425AC2"/>
<path d="M176.943 89.7274C176.996 89.6599 177.034 89.5826 177.056 89.5001C177.079 89.4176 177.085 89.3314 177.074 89.2466C177.062 89.1618 177.035 89.0801 176.992 89.006C176.949 88.932 176.892 88.8672 176.825 88.8154C176.756 88.7641 176.678 88.7269 176.595 88.7059C176.513 88.6848 176.427 88.6803 176.342 88.6926C176.171 88.7173 176.017 88.8091 175.914 88.9475C175.811 89.086 175.767 89.2599 175.792 89.4309C175.816 89.602 175.908 89.7562 176.046 89.8596C176.113 89.911 176.19 89.9484 176.272 89.9696C176.354 89.9908 176.439 89.9954 176.523 89.983C176.606 89.9707 176.686 89.9417 176.759 89.8978C176.831 89.8539 176.894 89.796 176.943 89.7274Z" fill="#425AC2"/>
<path d="M171.825 83.6351C171.903 83.6033 171.975 83.556 172.035 83.4958C172.096 83.4357 172.143 83.364 172.175 83.2851C172.207 83.2061 172.223 83.1215 172.222 83.0363C172.22 82.9511 172.202 82.867 172.168 82.7891C172.139 82.7042 172.094 82.6262 172.034 82.5597C171.975 82.4933 171.902 82.44 171.821 82.4031C171.74 82.3662 171.652 82.3466 171.562 82.3454C171.473 82.3443 171.385 82.3616 171.303 82.3964C171.22 82.4311 171.146 82.4825 171.085 82.5474C171.024 82.6122 170.976 82.6892 170.946 82.7732C170.916 82.8573 170.903 82.9467 170.909 83.0359C170.915 83.125 170.939 83.2121 170.98 83.2914C171.012 83.3705 171.059 83.4423 171.119 83.5027C171.179 83.5631 171.251 83.6108 171.33 83.6429C171.408 83.6749 171.493 83.6908 171.578 83.6894C171.663 83.6881 171.747 83.6696 171.825 83.6351Z" fill="#425AC2"/>
<path d="M170.413 75.823C170.498 75.8341 170.585 75.8281 170.667 75.8054C170.75 75.7827 170.827 75.7438 170.895 75.691C170.962 75.6381 171.019 75.5722 171.061 75.4973C171.103 75.4224 171.129 75.3399 171.139 75.2546C171.149 75.1678 171.143 75.0798 171.119 74.9956C171.096 74.9114 171.056 74.8327 171.002 74.764C170.948 74.6952 170.881 74.6378 170.805 74.595C170.729 74.5522 170.645 74.5247 170.559 74.5143C170.472 74.5039 170.384 74.5107 170.3 74.5343C170.216 74.5579 170.138 74.5978 170.069 74.6518C170 74.7058 169.943 74.7729 169.9 74.8491C169.857 74.9253 169.83 75.0091 169.82 75.0959C169.809 75.1831 169.816 75.2716 169.84 75.3561C169.864 75.4405 169.905 75.5192 169.961 75.5872C170.016 75.6552 170.085 75.7112 170.163 75.7517C170.241 75.7922 170.326 75.8165 170.413 75.823Z" fill="#425AC2"/>
<path d="M173.091 68.354C173.194 68.4298 173.317 68.4735 173.444 68.4796C173.571 68.4857 173.698 68.454 173.807 68.3883C173.916 68.3226 174.004 68.226 174.059 68.1106C174.113 67.9952 174.133 67.8662 174.115 67.7397C174.096 67.6133 174.041 67.4951 173.956 67.4C173.871 67.3049 173.759 67.2372 173.636 67.2054C173.512 67.1735 173.382 67.179 173.262 67.2211C173.142 67.2632 173.036 67.34 172.959 67.4419C172.858 67.5812 172.816 67.7545 172.84 67.9248C172.865 68.0951 172.955 68.2491 173.091 68.354Z" fill="#425AC2"/>
<path d="M190.238 69.7621L185.126 76.0406L186.168 76.8929L191.281 70.6144L190.238 69.7621Z" fill="#425AC2"/>
<path d="M173.275 75.0884L173.17 76.0875L185.266 77.3678L185.371 76.3687L173.275 75.0884Z" fill="#425AC2"/>
<path d="M182.828 78.2809C183.052 78.855 183.442 79.3489 183.948 79.6992C184.455 80.0496 185.054 80.2404 185.669 80.2471C186.284 80.2539 186.887 80.0763 187.401 79.7372C187.915 79.3981 188.316 78.9129 188.552 78.3438C188.789 77.7748 188.851 77.1479 188.729 76.5436C188.608 75.9393 188.309 75.3851 187.871 74.9522C187.433 74.5193 186.876 74.2273 186.271 74.1138C185.666 74.0004 185.042 74.0705 184.477 74.3153C183.743 74.6335 183.161 75.2248 182.853 75.9645C182.546 76.7042 182.537 77.5346 182.828 78.2809Z" fill="#FE958E"/>
<path d="M184.648 53.7211C184.662 53.316 184.715 52.9131 184.806 52.5182C185.202 50.7162 186.295 49.1454 187.846 48.1514C189.398 47.1573 191.28 46.8214 193.078 47.2175C194.876 47.6137 196.444 48.7095 197.436 50.2638C198.428 51.8181 198.764 53.7036 198.368 55.5056C198.279 55.9077 198.156 56.3013 197.999 56.6821L184.648 53.7211Z" fill="#425AC2"/>
<path d="M124.344 183.963H83.2228L84.3178 271.986H92.1673C92.1673 271.986 98.1172 227.703 100.347 203.249H105.795L107.431 271.986H115.347C115.347 271.986 124.582 202.945 124.357 189.634C124.457 187.744 124.452 185.851 124.344 183.963Z" fill="#A4B8EA"/>
<path d="M124.345 183.964H83.2238L78.0787 129.226C77.6302 124.771 81.931 120.938 87.4059 120.938H120.15C125.625 120.938 129.939 124.771 129.477 129.226L124.345 183.964Z" fill="#0E24A5"/>
<path d="M101.824 131.011C101.945 131.322 102.154 131.592 102.425 131.786C102.696 131.981 103.018 132.092 103.351 132.106C103.684 132.12 104.014 132.036 104.301 131.865C104.587 131.694 104.818 131.443 104.964 131.143C106.798 127.389 110.822 121.771 110.822 120.568V112.491C110.822 110.654 108.091 110.813 106.481 110.813H101.204C99.5948 110.813 96.8639 112.293 96.8639 114.131V120.568C96.9167 121.758 100.373 127.257 101.824 131.011Z" fill="#E98896"/>
<path d="M98.0259 115.821C103.461 120.844 108.237 119.218 111.984 112.834C116.43 105.246 117.947 96.9713 112.511 92.0011C111.315 90.8072 109.885 89.8734 108.312 89.2581C106.739 88.6428 105.056 88.3591 103.368 88.4249C101.681 88.4906 100.025 88.9044 98.5041 89.6402C96.9834 90.3761 95.6305 91.4183 94.5299 92.7017C89.5299 98.1478 92.5905 110.877 98.0259 115.821Z" fill="#FFA6AD"/>
<path d="M95.2015 135.253L65.7819 147.388C64.4346 147.941 62.9527 148.077 61.5276 147.778C60.1025 147.478 58.7996 146.758 57.7872 145.709L31.402 118.479L36.5208 112.663L62.1672 132.187C62.1672 132.187 77.5761 122.934 83.7503 121.308C86.5075 120.594 93.3545 128.023 93.3545 128.023L95.2015 135.253Z" fill="#0E24A5"/>
<path d="M84.1988 271.867H92.1936V278H75.9931C74.9245 278 74.5551 275.594 75.4917 275.079L84.1988 271.867Z" fill="#112256"/>
<path d="M115.452 271.867H107.47V278H123.631C124.7 278 125.069 275.594 124.133 275.079L115.452 271.867Z" fill="#112256"/>
<mask id="mask0_2_12165" style="mask-type:alpha" maskUnits="userSpaceOnUse" x="83" y="183" width="42" height="89">
<path d="M124.344 183.964H83.223L84.318 271.986H92.1676C92.1676 271.986 98.1175 227.704 100.347 203.25H105.796L107.431 271.986H115.347C115.347 271.986 124.582 202.946 124.358 189.635C124.457 187.745 124.453 185.852 124.344 183.964Z" fill="#A4B8EA"/>
</mask>
<g mask="url(#mask0_2_12165)">
<path d="M87.9986 174.526H86.3099V281.412H87.9986V174.526Z" fill="#03053F"/>
<path d="M92.6421 174.526H90.9535V281.412H92.6421V174.526Z" fill="#03053F"/>
<path d="M97.2862 174.526H95.5975V281.412H97.2862V174.526Z" fill="#03053F"/>
<path d="M101.943 174.526H100.254V281.412H101.943V174.526Z" fill="#03053F"/>
<path d="M106.587 174.526H104.898V281.412H106.587V174.526Z" fill="#03053F"/>
<path d="M111.231 174.526H109.542V281.412H111.231V174.526Z" fill="#03053F"/>
<path d="M115.888 174.526H114.199V281.412H115.888V174.526Z" fill="#03053F"/>
<path d="M120.531 174.526H118.843V281.412H120.531V174.526Z" fill="#03053F"/>
</g>
<path d="M124.371 183.963H83.2101V186.884H124.371V183.963Z" fill="#FFC1C1"/>
<path d="M36.5609 112.662C36.5609 112.662 37.9725 106.052 36.3762 106.052C34.7799 106.052 34.2522 109.952 33.5662 110.163C32.0359 110.639 29.9778 108.458 27.6823 106.515C25.3868 104.572 21.6005 104.863 21.7588 106.872C22.0491 110.758 31.4422 118.517 31.4422 118.517L36.5609 112.662Z" fill="#E98896"/>
<path d="M111.969 135.253L141.389 147.388C142.736 147.941 144.218 148.077 145.643 147.778C147.068 147.478 148.371 146.758 149.383 145.709L175.769 118.479L170.65 112.663L145.003 132.187C145.003 132.187 129.594 122.934 123.433 121.308C120.663 120.594 113.829 128.023 113.829 128.023L111.969 135.253Z" fill="#0E24A5"/>
<path d="M170.61 112.662C170.61 112.662 169.212 106.052 170.795 106.052C172.378 106.052 172.919 109.952 173.618 110.163C175.135 110.639 177.193 108.458 179.489 106.515C181.784 104.572 185.571 104.863 185.425 106.872C185.122 110.758 175.729 118.517 175.729 118.517L170.61 112.662Z" fill="#E98896"/>
<path d="M50.6242 182.906C50.6242 183.952 50.9337 184.974 51.5136 185.843C52.0934 186.713 52.9176 187.391 53.8818 187.791C54.8461 188.191 55.9071 188.296 56.9308 188.092C57.9544 187.888 58.8947 187.384 59.6327 186.645C60.3707 185.905 60.8733 184.963 61.0769 183.937C61.2805 182.912 61.176 181.849 60.7766 180.882C60.3772 179.916 59.7009 179.091 58.8331 178.51C57.9653 177.929 56.945 177.618 55.9013 177.618C54.5017 177.618 53.1595 178.175 52.1698 179.167C51.1802 180.159 50.6242 181.504 50.6242 182.906ZM52.524 182.906C52.5214 182.226 52.7203 181.56 53.0956 180.993C53.4709 180.426 54.0057 179.983 54.6323 179.721C55.2588 179.459 55.9489 179.389 56.6151 179.52C57.2813 179.651 57.8937 179.978 58.3748 180.458C58.8558 180.938 59.1838 181.55 59.3172 182.217C59.4507 182.884 59.3835 183.576 59.1243 184.205C58.865 184.834 58.4254 185.371 57.861 185.749C57.2967 186.128 56.633 186.329 55.9541 186.329C55.0466 186.329 54.1762 185.969 53.5333 185.328C52.8904 184.686 52.5275 183.815 52.524 182.906Z" fill="#FE958E"/>
<path d="M57.2074 172.873H39.5689L42.933 192.225H53.8433L57.2074 172.873Z" fill="#FE958E"/>
<path d="M140.122 188.299H178.658L183.935 164.399H145.412L140.122 188.299Z" fill="#BBBBBB"/>
<path d="M178.685 188.14H130.69V192.212H178.685V188.14Z" fill="#BBBBBB"/>
<path d="M160.255 176.971C160.255 177.473 160.403 177.964 160.682 178.381C160.96 178.799 161.356 179.124 161.818 179.316C162.281 179.508 162.791 179.558 163.282 179.46C163.773 179.363 164.225 179.121 164.579 178.766C164.933 178.411 165.174 177.959 165.272 177.466C165.37 176.974 165.32 176.464 165.128 176C164.936 175.536 164.612 175.14 164.195 174.861C163.779 174.582 163.289 174.433 162.788 174.433C162.455 174.433 162.126 174.499 161.818 174.627C161.511 174.754 161.232 174.941 160.997 175.177C160.762 175.412 160.575 175.692 160.448 176C160.32 176.308 160.255 176.638 160.255 176.971Z" fill="#4E687F"/>
<path d="M98.0259 115.821C103.461 120.844 108.237 119.218 111.984 112.834C116.43 105.246 117.947 96.9713 112.511 92.0011C111.315 90.8072 109.885 89.8734 108.312 89.2581C106.739 88.6428 105.056 88.3591 103.368 88.4249C101.681 88.4906 100.025 88.9044 98.5041 89.6402C96.9834 90.3761 95.6305 91.4183 94.5299 92.7017C89.5299 98.1478 92.5905 110.877 98.0259 115.821Z" fill="#E98896"/>
<path d="M92.3264 111.156C91.271 108.327 91.5084 102.18 94.7142 102.775C97.0889 103.211 94.8858 106.476 96.9966 106.833C99.1074 107.19 94.7934 97.0381 100.176 94.4737C105.295 92.0283 110.73 93.4955 111.099 99.7611C111.416 105.405 109.332 107.52 111.099 107.52C112.867 107.52 111.099 103.634 114.266 103.991C117.432 104.348 117.445 112.121 119.2 112.121C120.954 112.121 119.912 87.4017 119.912 87.4017L94.5296 83.1189L87.8409 97.2496L92.3264 111.156Z" fill="#425AC2"/>
</svg>
