<svg width="22" height="17" viewBox="0 0 22 17" fill="none" xmlns="http://www.w3.org/2000/svg">
<path d="M17.0513 1.52295L11.0642 6.19537L4.94019 1.52295V1.52421L4.94758 1.53053V8.07318L10.9951 12.8466L17.0513 8.25755V1.52295Z" fill="#EA4335"/>
<path d="M18.6236 0.386385L17.0513 1.52292V8.25752L21.9988 4.45897V2.17074C21.9988 2.17074 21.3982 -1.09742 18.6236 0.386385Z" fill="#FBBC05"/>
<path d="M17.0513 8.25754V16.9924H20.8433C20.8433 16.9924 21.9223 16.8813 22 15.6513V4.45898L17.0513 8.25754Z" fill="#34A853"/>
<path d="M4.94787 17.0001V8.07321L4.94019 8.06689L4.94787 17.0001Z" fill="#C5221F"/>
<path d="M4.94014 1.52429L3.37646 0.394067C0.601794 -1.08974 0 2.17716 0 2.17716V4.46539L4.94014 8.06694V1.52429Z" fill="#C5221F"/>
<path d="M4.94019 1.52417V8.06682L4.94787 8.07314V1.53048L4.94019 1.52417Z" fill="#C5221F"/>
<path d="M0 4.46655V15.6589C0.0764574 16.8901 1.15673 17 1.15673 17H4.94877L4.94014 8.06684L0 4.46655Z" fill="#4285F4"/>
</svg>
