<svg width="14" height="14" viewBox="0 0 14 14" fill="none" xmlns="http://www.w3.org/2000/svg">
<path d="M5.25146 1.31079C4.53193 1.31079 3.93646 1.90628 3.93646 2.62579V3.06155H1.75079C1.03101 3.06155 0.439209 3.65593 0.439209 4.37569V5.25065C0.439209 5.7476 0.720251 6.20147 1.16293 6.42295C1.21226 6.44763 1.26142 6.47261 1.31075 6.49729V11.3736C1.31075 12.0931 1.90623 12.6886 2.62574 12.6886H11.3736C12.0931 12.6886 12.6886 12.0931 12.6886 11.3736V6.49729C12.7381 6.4725 12.7877 6.44774 12.8372 6.42295C13.28 6.2015 13.5601 5.7476 13.5601 5.25065V4.37569C13.5601 3.65593 12.9692 3.06155 12.2494 3.06155H10.0629V2.62579C10.0629 1.90628 9.46824 1.31079 8.74871 1.31079H5.25146ZM5.25146 2.18575H8.74871C8.99866 2.18575 9.1879 2.37585 9.1879 2.62579V3.06155H4.81142V2.62579C4.81142 2.37585 5.00152 2.18575 5.25146 2.18575ZM1.75079 3.93651H12.2494C12.4964 3.93651 12.6886 4.12872 12.6886 4.37569V5.25065C12.6886 5.41609 12.593 5.56713 12.4433 5.64199C10.6941 6.51713 8.94452 7.39128 7.19533 8.26685C7.07101 8.32902 6.9283 8.32902 6.80399 8.26685C5.0548 7.39128 3.30604 6.51713 1.55683 5.64199C1.40713 5.56709 1.31075 5.41609 1.31075 5.25065V4.37569C1.31075 4.12872 1.50381 3.93651 1.75079 3.93651ZM6.99966 6.56223C6.75805 6.56223 6.56218 6.75808 6.56218 6.9997C6.56218 7.24131 6.75804 7.43718 6.99966 7.43718C7.24128 7.43718 7.43714 7.24131 7.43714 6.9997C7.43713 6.75808 7.24127 6.56223 6.99966 6.56223ZM2.18655 6.93477C3.5947 7.63917 5.00224 8.34396 6.41009 9.04867C6.77994 9.23381 7.21938 9.23381 7.58923 9.04867C8.99712 8.34394 10.4054 7.63919 11.8136 6.93477V11.3736C11.8136 11.6235 11.6235 11.8128 11.3736 11.8128H2.62574C2.37583 11.8128 2.18655 11.6235 2.18655 11.3736V6.93477Z" fill="#A36200"/>
</svg>
