<svg width="59" height="65" viewBox="0 0 59 65" fill="none" xmlns="http://www.w3.org/2000/svg">
<path d="M48.1428 8.0275C47.8828 8.0275 47.6228 7.9625 47.3953 7.8325C41.1553 4.615 35.7603 3.25 29.2928 3.25C22.8578 3.25 16.7478 4.7775 11.1903 7.8325C10.4103 8.255 9.43527 7.9625 8.98027 7.1825C8.55777 6.4025 8.85027 5.395 9.63027 4.9725C15.6753 1.69 22.3053 0 29.2928 0C36.2153 0 42.2603 1.5275 48.8903 4.94C49.7028 5.3625 49.9953 6.3375 49.5728 7.1175C49.2803 7.7025 48.7278 8.0275 48.1428 8.0275ZM1.63527 25.09C1.31027 25.09 0.985266 24.9925 0.692766 24.7975C-0.0547337 24.2775 -0.217234 23.27 0.302766 22.5225C3.52027 17.9725 7.61527 14.3975 12.4903 11.895C22.6953 6.63 35.7603 6.5975 45.9978 11.8625C50.8728 14.365 54.9678 17.9075 58.1853 22.425C58.7053 23.14 58.5428 24.18 57.7953 24.7C57.0478 25.22 56.0403 25.0575 55.5203 24.31C52.5953 20.215 48.8903 16.9975 44.5028 14.755C35.1753 9.9775 23.2478 9.9775 13.9528 14.7875C9.53277 17.0625 5.82777 20.3125 2.90277 24.4075C2.64277 24.8625 2.15527 25.09 1.63527 25.09ZM21.9478 64.3175C21.5253 64.3175 21.1028 64.155 20.8103 63.83C17.9828 61.0025 16.4553 59.1825 14.2778 55.25C12.0353 51.2525 10.8653 46.3775 10.8653 41.145C10.8653 31.4925 19.1203 23.6275 29.2603 23.6275C39.4003 23.6275 47.6553 31.4925 47.6553 41.145C47.6553 42.055 46.9403 42.77 46.0303 42.77C45.1203 42.77 44.4053 42.055 44.4053 41.145C44.4053 33.28 37.6128 26.8775 29.2603 26.8775C20.9078 26.8775 14.1153 33.28 14.1153 41.145C14.1153 45.825 15.1553 50.1475 17.1378 53.6575C19.2178 57.395 20.6478 58.9875 23.1503 61.5225C23.7678 62.1725 23.7678 63.18 23.1503 63.83C22.7928 64.155 22.3703 64.3175 21.9478 64.3175ZM45.2503 58.305C41.3828 58.305 37.9703 57.33 35.1753 55.4125C30.3328 52.13 27.4403 46.8 27.4403 41.145C27.4403 40.235 28.1553 39.52 29.0653 39.52C29.9753 39.52 30.6903 40.235 30.6903 41.145C30.6903 45.7275 33.0303 50.05 36.9953 52.715C39.3028 54.275 42.0003 55.0225 45.2503 55.0225C46.0303 55.0225 47.3303 54.925 48.6303 54.6975C49.5078 54.535 50.3528 55.12 50.5153 56.03C50.6778 56.9075 50.0928 57.7525 49.1828 57.915C47.3303 58.2725 45.7053 58.305 45.2503 58.305ZM38.7178 65C38.5878 65 38.4253 64.9675 38.2953 64.935C33.1278 63.505 29.7478 61.5875 26.2053 58.11C21.6553 53.5925 19.1528 47.58 19.1528 41.145C19.1528 35.88 23.6378 31.59 29.1628 31.59C34.6878 31.59 39.1728 35.88 39.1728 41.145C39.1728 44.6225 42.1953 47.45 45.9328 47.45C49.6703 47.45 52.6928 44.6225 52.6928 41.145C52.6928 28.8925 42.1303 18.9475 29.1303 18.9475C19.9003 18.9475 11.4503 24.0825 7.64777 32.045C6.38027 34.6775 5.73027 37.765 5.73027 41.145C5.73027 43.68 5.95777 47.6775 7.90776 52.8775C8.23277 53.7225 7.81027 54.665 6.96527 54.9575C6.12027 55.2825 5.17777 54.8275 4.88527 54.015C3.29277 49.7575 2.51277 45.5325 2.51277 41.145C2.51277 37.245 3.26027 33.7025 4.72276 30.615C9.04527 21.5475 18.6328 15.665 29.1303 15.665C43.9178 15.665 55.9428 27.0725 55.9428 41.1125C55.9428 46.3775 51.4578 50.6675 45.9328 50.6675C40.4078 50.6675 35.9228 46.3775 35.9228 41.1125C35.9228 37.635 32.9003 34.8075 29.1628 34.8075C25.4253 34.8075 22.4028 37.635 22.4028 41.1125C22.4028 46.67 24.5478 51.87 28.4803 55.77C31.5678 58.825 34.5253 60.515 39.1078 61.7825C39.9853 62.01 40.4728 62.92 40.2453 63.765C40.0828 64.5125 39.4003 65 38.7178 65Z" fill="white"/>
</svg>
