<svg width="14" height="14" viewBox="0 0 14 14" fill="none" xmlns="http://www.w3.org/2000/svg">
<path d="M5.25146 1.31067C4.53193 1.31067 3.93646 1.90616 3.93646 2.62566V3.06143H1.75079C1.03101 3.06143 0.439209 3.65581 0.439209 4.37557V5.25053C0.439209 5.74747 0.720251 6.20135 1.16293 6.42283C1.21226 6.44751 1.26142 6.47249 1.31075 6.49717V11.3735C1.31075 12.093 1.90623 12.6885 2.62574 12.6885H11.3736C12.0931 12.6885 12.6886 12.093 12.6886 11.3735V6.49717C12.7381 6.47238 12.7877 6.44762 12.8372 6.42283C13.28 6.20138 13.5601 5.74747 13.5601 5.25053V4.37557C13.5601 3.65581 12.9692 3.06143 12.2494 3.06143H10.0629V2.62566C10.0629 1.90616 9.46824 1.31067 8.74871 1.31067H5.25146ZM5.25146 2.18562H8.74871C8.99866 2.18562 9.1879 2.37573 9.1879 2.62566V3.06143H4.81142V2.62566C4.81142 2.37573 5.00152 2.18562 5.25146 2.18562ZM1.75079 3.93639H12.2494C12.4964 3.93639 12.6886 4.1286 12.6886 4.37557V5.25053C12.6886 5.41597 12.593 5.56701 12.4433 5.64186C10.6941 6.51701 8.94452 7.39116 7.19533 8.26673C7.07101 8.3289 6.9283 8.3289 6.80399 8.26673C5.0548 7.39116 3.30604 6.51701 1.55683 5.64186C1.40713 5.56696 1.31075 5.41597 1.31075 5.25053V4.37557C1.31075 4.1286 1.50381 3.93639 1.75079 3.93639ZM6.99966 6.5621C6.75805 6.5621 6.56218 6.75796 6.56218 6.99958C6.56218 7.24119 6.75804 7.43706 6.99966 7.43706C7.24128 7.43706 7.43714 7.24119 7.43714 6.99958C7.43713 6.75796 7.24127 6.5621 6.99966 6.5621ZM2.18655 6.93464C3.5947 7.63905 5.00224 8.34384 6.41009 9.04855C6.77994 9.23368 7.21938 9.23368 7.58923 9.04855C8.99712 8.34381 10.4054 7.63907 11.8136 6.93464V11.3735C11.8136 11.6234 11.6235 11.8127 11.3736 11.8127H2.62574C2.37583 11.8127 2.18655 11.6234 2.18655 11.3735V6.93464Z" fill="#FF7354"/>
</svg>
