<svg width="14" height="14" viewBox="0 0 14 14" fill="none" xmlns="http://www.w3.org/2000/svg">
<path d="M11.6667 4.66667L8.16672 1.59834C7.84587 1.31136 7.43051 1.15271 7.00005 1.15271C6.56959 1.15271 6.15423 1.31136 5.83339 1.59834L2.33339 4.66667C2.1481 4.83238 2.00025 5.03566 1.89966 5.26298C1.79908 5.4903 1.74808 5.73643 1.75006 5.985V11.0833C1.75006 11.5475 1.93443 11.9926 2.26262 12.3208C2.59081 12.649 3.03593 12.8333 3.50006 12.8333H10.5001C10.9642 12.8333 11.4093 12.649 11.7375 12.3208C12.0657 11.9926 12.2501 11.5475 12.2501 11.0833V5.97917C12.2512 5.73158 12.1998 5.48657 12.0992 5.26032C11.9987 5.03407 11.8513 4.83173 11.6667 4.66667ZM8.16672 11.6667H5.83339V8.75C5.83339 8.59529 5.89485 8.44692 6.00424 8.33752C6.11364 8.22813 6.26201 8.16667 6.41672 8.16667H7.58339C7.7381 8.16667 7.88647 8.22813 7.99587 8.33752C8.10526 8.44692 8.16672 8.59529 8.16672 8.75V11.6667ZM11.0834 11.0833C11.0834 11.238 11.0219 11.3864 10.9125 11.4958C10.8031 11.6052 10.6548 11.6667 10.5001 11.6667H9.33339V8.75C9.33339 8.28587 9.14901 7.84075 8.82082 7.51257C8.49264 7.18438 8.04752 7 7.58339 7H6.41672C5.95259 7 5.50747 7.18438 5.17928 7.51257C4.8511 7.84075 4.66672 8.28587 4.66672 8.75V11.6667H3.50006C3.34535 11.6667 3.19697 11.6052 3.08758 11.4958C2.97818 11.3864 2.91672 11.238 2.91672 11.0833V5.97917C2.91683 5.89635 2.93457 5.81449 2.96877 5.73906C3.00296 5.66362 3.05283 5.59633 3.11506 5.54167L6.61505 2.47917C6.72151 2.38565 6.85836 2.33408 7.00005 2.33408C7.14175 2.33408 7.2786 2.38565 7.38505 2.47917L10.8851 5.54167C10.9473 5.59633 10.9971 5.66362 11.0313 5.73906C11.0655 5.81449 11.0833 5.89635 11.0834 5.97917V11.0833Z" fill="#FCFF54"/>
</svg>
